<svg xmlns="http://www.w3.org/2000/svg" viewBox="0 0 448 448" role="img" aria-labelledby="title">
  <title id="title">M-Pesa</title>
  <rect width="448" height="448" fill="#ed1c2b"/>

  <g transform="translate(142 54)">
    <rect x="31" y="8" width="92" height="178" rx="20" fill="#fff"/>
    <rect x="43" y="23" width="68" height="122" rx="3" fill="#ed1c2b"/>
    <rect x="51" y="157" width="10" height="10" rx="1" fill="#ed1c2b"/>
    <rect x="74" y="157" width="14" height="10" rx="1" fill="#ed1c2b"/>
    <rect x="101" y="157" width="10" height="10" rx="1" fill="#ed1c2b"/>
    <path
      d="M-1 101c40-2 68-12 90-33 8-8 15-18 23-30 15 14 36 27 61 34-26 31-62 45-106 43-27-1-50-6-68-14z"
      fill="#59a934"
    />
  </g>

  <text
    x="224"
    y="350"
    fill="#fff"
    font-family="DejaVu Sans, Arial, Helvetica, sans-serif"
    font-size="76"
    font-weight="700"
    text-anchor="middle"
  >m-pesa</text>
</svg>
